<?xml version="1.0" standalone="no"?>
<!DOCTYPE svg PUBLIC "-//W3C//DTD SVG 20010904//EN"
 "http://www.w3.org/TR/2001/REC-SVG-20010904/DTD/svg10.dtd">
<svg version="1.0" xmlns="http://www.w3.org/2000/svg"
 width="501.000000pt" height="501.000000pt" viewBox="0 0 501.000000 501.000000"
 preserveAspectRatio="xMidYMid meet">
<metadata>
Created by potrace 1.11, written by Peter Selinger 2001-2013
</metadata>
<g transform="translate(0.000000,501.000000) scale(0.100000,-0.100000)"
fill="#000000" stroke="none">
<path d="M2570 4748 c0 -2 6 -25 13 -53 14 -51 15 -177 3 -250 -12 -74 -56
-219 -127 -425 -137 -398 -167 -573 -128 -755 20 -95 55 -175 104 -239 19 -25
35 -50 35 -54 0 -4 -35 -9 -77 -10 -91 -3 -207 -11 -243 -17 -14 -2 -54 -7
-90 -10 -36 -4 -78 -9 -95 -11 -16 -3 -43 -7 -60 -10 -245 -39 -519 -139 -658
-240 -57 -42 -103 -103 -118 -158 -10 -37 -7 -210 5 -271 2 -11 7 -49 11 -85
3 -36 8 -76 10 -90 2 -14 6 -45 10 -70 3 -25 8 -56 10 -70 9 -49 17 -95 20
-120 7 -53 57 -233 86 -316 94 -258 275 -472 523 -619 142 -84 254 -121 421
-141 33 -3 69 -8 80 -11 22 -4 285 -4 325 1 310 36 604 166 815 361 73 68 84
74 214 119 345 119 686 395 772 626 88 235 16 419 -206 529 -123 60 -256 75
-353 41 -37 -14 -37 -19 4 -26 199 -32 372 -137 434 -260 101 -203 -129 -455
-501 -549 -35 -9 -71 -18 -80 -21 -14 -4 -14 5 2 93 16 91 21 119 34 205 35
226 -8 169 -114 -152 -148 -445 -324 -642 -681 -767 -136 -48 -206 -58 -415
-58 -245 0 -345 14 -526 75 -349 117 -558 325 -710 706 -38 97 -86 273 -103
379 -10 67 -22 147 -31 218 l-6 48 63 -48 c35 -26 95 -65 134 -85 135 -71 414
-150 609 -174 28 -3 61 -7 75 -10 146 -24 683 -23 795 2 11 2 36 6 55 8 90 12
133 20 245 46 397 94 630 254 621 426 -7 117 -98 214 -287 303 -218 103 -641
196 -915 202 -74 2 -79 7 -121 117 -36 98 -51 189 -48 299 4 125 29 242 109
512 69 233 86 300 102 401 10 67 11 216 2 285 -9 70 -36 175 -44 175 -2 0 -4
-1 -4 -2z m130 -1868 c328 -36 615 -130 757 -247 56 -45 95 -113 100 -172 l4
-46 -14 30 c-42 90 -225 178 -482 230 -44 9 -87 18 -95 20 -8 1 -44 6 -80 10
-36 4 -78 9 -95 11 -174 22 -535 22 -710 -1 -17 -2 -51 -6 -77 -9 -26 -3 -58
-8 -70 -10 -13 -3 -40 -8 -61 -11 -193 -27 -480 -121 -612 -201 -32 -19 -59
-34 -61 -34 -10 0 -2 39 17 80 59 130 307 259 607 315 13 2 31 6 40 9 22 7 87
15 242 30 150 14 445 13 590 -4z m-32 -204 c20 -3 62 -8 92 -12 135 -15 186
-24 295 -49 178 -42 282 -82 363 -139 78 -55 103 -127 62 -179 -66 -84 -347
-200 -585 -242 -269 -47 -660 -53 -928 -14 -40 5 -90 13 -112 16 -22 3 -48 9
-57 14 -10 6 -18 8 -18 5 0 -3 -33 4 -72 15 -207 56 -339 120 -424 205 -33 33
-63 70 -66 82 -24 90 548 271 947 299 44 3 81 7 83 8 6 5 381 -3 420 -9z"/>
<path d="M2248 2614 c-2 -1 -41 -5 -88 -8 -126 -10 -152 -13 -265 -32 -64 -10
-240 -57 -274 -72 -167 -76 -176 -155 -27 -226 74 -36 163 -62 271 -81 17 -3
37 -8 45 -10 8 -2 42 -7 75 -11 33 -3 68 -8 78 -10 9 -1 63 -6 120 -9 56 -3
112 -8 125 -11 12 -2 22 -1 22 4 0 4 -19 9 -42 10 -73 4 -259 32 -347 53 -189
45 -301 109 -301 171 0 34 59 86 135 117 71 30 247 73 350 86 28 3 59 8 70 10
11 2 35 4 53 4 17 1 32 5 32 9 0 8 -26 12 -32 6z"/>
<path d="M2290 2610 c0 -7 91 -1 99 6 3 3 -19 4 -47 3 -29 -1 -52 -5 -52 -9z"/>
<path d="M2370 2514 c-14 -3 -76 -11 -139 -20 -134 -18 -231 -46 -256 -74 -17
-19 -17 -21 0 -40 9 -10 39 -26 65 -35 44 -15 58 -18 120 -30 14 -3 34 -7 45
-9 11 -2 52 -7 90 -11 39 -4 78 -9 88 -11 10 -2 16 0 13 4 -2 4 -19 9 -38 10
-18 1 -69 9 -113 18 -201 40 -247 89 -127 133 62 22 198 51 241 51 14 0 33 5
41 10 15 10 14 10 -30 4z"/>
<path d="M2433 2513 c9 -2 25 -2 35 0 9 3 1 5 -18 5 -19 0 -27 -2 -17 -5z"/>
<path d="M2428 2283 c12 -2 32 -2 45 0 12 2 2 4 -23 4 -25 0 -35 -2 -22 -4z"/>
<path d="M2348 2143 c6 -2 18 -2 25 0 6 3 1 5 -13 5 -14 0 -19 -2 -12 -5z"/>
<path d="M2255 4202 c28 -92 5 -194 -95 -434 -96 -228 -125 -321 -129 -415 -5
-122 44 -237 132 -312 51 -44 62 -46 29 -5 -17 22 -43 66 -58 99 -23 50 -27
75 -27 150 -1 107 12 162 93 380 72 193 90 266 90 365 0 70 -20 174 -36 189
-3 3 -3 -4 1 -17z"/>
<path d="M2777 4190 c11 -54 5 -147 -12 -209 -9 -31 -50 -135 -90 -231 -102
-244 -117 -290 -122 -395 -4 -74 -1 -101 16 -153 12 -35 27 -70 34 -79 41 -51
104 -116 122 -125 20 -11 20 -10 -1 13 -87 100 -118 234 -89 385 7 38 41 143
75 234 34 91 70 202 81 248 24 101 23 214 -2 292 -10 30 -15 39 -12 20z"/>
<path d="M970 1787 c-259 -100 -472 -256 -544 -399 -34 -69 -45 -165 -26 -224
71 -220 402 -447 873 -599 116 -38 358 -99 437 -110 24 -4 47 -8 50 -10 3 -1
32 -6 65 -10 32 -3 62 -8 65 -10 4 -2 31 -6 175 -20 228 -24 643 -24 860 0 22
2 65 7 95 10 62 7 113 14 150 20 14 3 43 7 65 11 159 22 448 96 602 153 370
136 612 323 674 519 47 151 10 332 -85 421 l-26 24 29 -84 c31 -94 33 -152 5
-249 -46 -162 -196 -303 -461 -434 -89 -45 -274 -112 -358 -131 -11 -2 -56
-13 -100 -24 -86 -21 -261 -55 -335 -66 -312 -44 -400 -50 -750 -50 -263 0
-401 5 -510 20 -19 2 -55 7 -80 10 -25 3 -56 7 -70 10 -14 2 -42 7 -64 10
-233 33 -540 127 -737 225 -187 94 -398 270 -441 367 -86 195 65 407 421 590
146 75 148 78 21 30z"/>
<path d="M1075 1736 c-214 -101 -347 -248 -348 -381 0 -103 89 -227 232 -323
83 -56 97 -57 43 -4 -112 108 -172 216 -180 323 -4 60 -1 75 26 131 44 94 122
169 258 248 83 48 65 52 -31 6z"/>
</g>
</svg>
