<svg id="Capa_1" enable-background="new 0 0 512.003 512.003" height="512" viewBox="0 0 512.003 512.003" width="512" xmlns="http://www.w3.org/2000/svg"><path d="m226 .001c-62.131 0-118.381 26.184-159.099 66.901s-66.901 96.966-66.901 159.099c0 124.265 101.735 225 226 225 62.133 0 118.381-25.184 159.099-65.901s65.901-96.968 65.901-159.099c0-124.265-100.735-226-225-226z" fill="#ffda2d"/><path d="m226 .001c-62.131 0-118.381 26.184-159.099 66.901l318.197 318.197c40.718-40.717 65.902-96.967 65.902-159.098 0-124.265-100.735-226-225-226z" fill="#fdbf00"/><path d="m106 271.001c-24.814 0-45-20.186-45-45s20.186-45 45-45 45 20.186 45 45-20.186 45-45 45z" fill="#fdbf00"/><path d="m241 181.001c-33.091 0-60-26.909-60-60s26.909-60 60-60 60 26.909 60 60-26.909 60-60 60z" fill="#ff9100"/><circle cx="196" cy="286.001" fill="#fdbf00" r="15"/><path d="m136 121.001c-4.142 0-7.89 1.679-10.605 4.395-2.714 2.714-4.395 6.464-4.395 10.605 0 8.284 6.716 15 15 15 4.142 0 7.892-1.681 10.605-4.395 2.715-2.715 4.395-6.464 4.395-10.605 0-8.284-6.716-15-15-15z" fill="#fdbf00"/><path d="m151 136.001c0-8.284-6.716-15-15-15-4.142 0-7.89 1.679-10.605 4.395l21.211 21.211c2.715-2.716 4.394-6.464 4.394-10.606z" fill="#ff9100"/><path d="m510.857 150.854c-2.314-5.61-7.793-9.258-13.857-9.258-71.558 0-131.942 53.086-141.83 121.934l-45.337-15.103c-5.391-1.831-11.338-.396-15.352 3.618s-5.42 9.961-3.618 15.352l11.719 35.186-35.186-11.719c-5.376-1.846-11.338-.41-15.352 3.618-4.014 4.014-5.421 9.961-3.618 15.352l15.103 45.337c-68.848 9.888-121.934 70.272-121.934 141.83 0 6.064 3.647 11.543 9.258 13.857 5.533 2.309 12.023 1.073 16.348-3.252 22.134-22.134 54.287-30.678 83.994-20.834 3.008.443 13.403 7.28 22.061-1.377 17.007-17.007 46.67-16.978 63.647 0 5.859 5.859 15.352 5.859 21.211 0 22.148-22.134 54.36-29.692 83.994-19.834l6.724 2.241c5.405 1.831 11.338.396 15.352-3.618s5.42-9.961 3.618-15.352l-2.241-6.724c-9.888-29.678-2.3-61.86 19.834-83.994 5.859-5.859 5.859-15.352 0-21.211-8.496-8.496-13.184-19.805-13.184-31.831 0-12.012 4.688-23.32 13.184-31.816 8.606-8.573 1.82-19.048 1.377-22.061-9.888-29.678-1.285-61.86 20.834-83.994 4.291-4.291 5.581-10.736 3.251-16.347z" fill="#575f64"/><path d="m467.802 448.833-2.241-6.724c-9.888-29.678-2.3-61.86 19.834-83.994 5.859-5.859 5.859-15.352 0-21.211-8.496-8.496-13.184-19.805-13.184-31.831 0-12.012 4.688-23.32 13.184-31.816 8.606-8.573 1.82-19.048 1.377-22.061-9.888-29.678-1.285-61.86 20.834-83.994 4.292-4.292 5.581-10.737 3.252-16.348-2.314-5.61-7.793-9.258-13.857-9.258-71.558 0-131.942 53.086-141.83 121.934l-45.337-15.103c-5.391-1.831-11.338-.396-15.352 3.618s-5.42 9.961-3.618 15.352l11.719 35.186 161.602 161.602c4.012-4.014 5.419-9.962 3.617-15.352z" fill="#474f54"/></svg>