<?xml version="1.0"?>
<svg xmlns="http://www.w3.org/2000/svg" height="512px" viewBox="-63 0 479 480" width="512px"><path d="m296.5 0h-240c-30.914062.0351562-55.964844 25.085938-56 56v368c.035156 30.914062 25.085938 55.964844 56 56h240c30.914062-.035156 55.964844-25.085938 56-56v-368c-.035156-30.914062-25.085938-55.9648438-56-56zm40 424c-.027344 22.082031-17.917969 39.972656-40 40h-240c-22.082031-.027344-39.972656-17.917969-40-40v-368c.027344-22.082031 17.917969-39.972656 40-40h240c22.082031.027344 39.972656 17.917969 40 40zm0 0" fill="#000333"/><path d="m296.5 32h-240c-13.253906 0-24 10.746094-24 24v80c0 13.253906 10.746094 24 24 24h240c13.253906 0 24-10.746094 24-24v-80c0-13.253906-10.746094-24-24-24zm8 104c0 4.417969-3.582031 8-8 8h-240c-4.417969 0-8-3.582031-8-8v-80c0-4.417969 3.582031-8 8-8h240c4.417969 0 8 3.582031 8 8zm0 0" fill="#000333"/><path d="m88.5 184h-32c-13.253906 0-24 10.746094-24 24v24c0 13.253906 10.746094 24 24 24h32c13.253906 0 24-10.746094 24-24v-24c0-13.253906-10.746094-24-24-24zm8 48c0 4.417969-3.582031 8-8 8h-32c-4.417969 0-8-3.582031-8-8v-24c0-4.417969 3.582031-8 8-8h32c4.417969 0 8 3.582031 8 8zm0 0" fill="#000333"/><path d="m192.5 184h-32c-13.253906 0-24 10.746094-24 24v24c0 13.253906 10.746094 24 24 24h32c13.253906 0 24-10.746094 24-24v-24c0-13.253906-10.746094-24-24-24zm8 48c0 4.417969-3.582031 8-8 8h-32c-4.417969 0-8-3.582031-8-8v-24c0-4.417969 3.582031-8 8-8h32c4.417969 0 8 3.582031 8 8zm0 0" fill="#000333"/><path d="m296.5 184h-32c-13.253906 0-24 10.746094-24 24v24c0 13.253906 10.746094 24 24 24h32c13.253906 0 24-10.746094 24-24v-24c0-13.253906-10.746094-24-24-24zm8 48c0 4.417969-3.582031 8-8 8h-32c-4.417969 0-8-3.582031-8-8v-24c0-4.417969 3.582031-8 8-8h32c4.417969 0 8 3.582031 8 8zm0 0" fill="#000333"/><path d="m88.5 280h-32c-13.253906 0-24 10.746094-24 24v24c0 13.253906 10.746094 24 24 24h32c13.253906 0 24-10.746094 24-24v-24c0-13.253906-10.746094-24-24-24zm8 48c0 4.417969-3.582031 8-8 8h-32c-4.417969 0-8-3.582031-8-8v-24c0-4.417969 3.582031-8 8-8h32c4.417969 0 8 3.582031 8 8zm0 0" fill="#000333"/><path d="m192.5 280h-32c-13.253906 0-24 10.746094-24 24v24c0 13.253906 10.746094 24 24 24h32c13.253906 0 24-10.746094 24-24v-24c0-13.253906-10.746094-24-24-24zm8 48c0 4.417969-3.582031 8-8 8h-32c-4.417969 0-8-3.582031-8-8v-24c0-4.417969 3.582031-8 8-8h32c4.417969 0 8 3.582031 8 8zm0 0" fill="#000333"/><path d="m296.5 280h-32c-13.253906 0-24 10.746094-24 24v24c0 13.253906 10.746094 24 24 24h32c13.253906 0 24-10.746094 24-24v-24c0-13.253906-10.746094-24-24-24zm8 48c0 4.417969-3.582031 8-8 8h-32c-4.417969 0-8-3.582031-8-8v-24c0-4.417969 3.582031-8 8-8h32c4.417969 0 8 3.582031 8 8zm0 0" fill="#000333"/><path d="m88.5 376h-32c-13.253906 0-24 10.746094-24 24v24c0 13.253906 10.746094 24 24 24h32c13.253906 0 24-10.746094 24-24v-24c0-13.253906-10.746094-24-24-24zm8 48c0 4.417969-3.582031 8-8 8h-32c-4.417969 0-8-3.582031-8-8v-24c0-4.417969 3.582031-8 8-8h32c4.417969 0 8 3.582031 8 8zm0 0" fill="#000333"/><path d="m192.5 376h-32c-13.253906 0-24 10.746094-24 24v24c0 13.253906 10.746094 24 24 24h32c13.253906 0 24-10.746094 24-24v-24c0-13.253906-10.746094-24-24-24zm8 48c0 4.417969-3.582031 8-8 8h-32c-4.417969 0-8-3.582031-8-8v-24c0-4.417969 3.582031-8 8-8h32c4.417969 0 8 3.582031 8 8zm0 0" fill="#000333"/><path d="m296.5 376h-32c-13.253906 0-24 10.746094-24 24v24c0 13.253906 10.746094 24 24 24h32c13.253906 0 24-10.746094 24-24v-24c0-13.253906-10.746094-24-24-24zm8 48c0 4.417969-3.582031 8-8 8h-32c-4.417969 0-8-3.582031-8-8v-24c0-4.417969 3.582031-8 8-8h32c4.417969 0 8 3.582031 8 8zm0 0" fill="#000333"/></svg>
