<svg height="512" viewBox="0 0 512.003 512.003" width="512" xmlns="http://www.w3.org/2000/svg"><path d="M226 .001c-62.131 0-118.381 26.184-159.099 66.901S0 163.868 0 226.001c0 124.265 101.735 225 226 225 62.133 0 118.381-25.184 159.099-65.901S451 288.132 451 226.001c0-124.265-100.735-226-225-226z" fill="#ffda2d"/><path d="M226 .001c-62.131 0-118.381 26.184-159.099 66.901l318.197 318.197C425.816 344.382 451 288.132 451 226.001c0-124.265-100.735-226-225-226zm-120 271c-24.814 0-45-20.186-45-45s20.186-45 45-45 45 20.186 45 45-20.186 45-45 45z" fill="#fdbf00"/><path d="M241 181.001c-33.091 0-60-26.909-60-60s26.909-60 60-60 60 26.909 60 60-26.909 60-60 60z" fill="#ff9100"/><circle cx="196" cy="286.001" fill="#fdbf00" r="15"/><path d="M136 121.001c-4.142 0-7.89 1.679-10.605 4.395A14.954 14.954 0 00121 136.001c0 8.284 6.716 15 15 15a14.95 14.95 0 0010.605-4.395A14.951 14.951 0 00151 136.001c0-8.284-6.716-15-15-15z" fill="#fdbf00"/><path d="M151 136.001c0-8.284-6.716-15-15-15-4.142 0-7.89 1.679-10.605 4.395l21.211 21.211A14.953 14.953 0 00151 136.001z" fill="#ff9100"/><path d="M510.857 150.854A14.984 14.984 0 00497 141.596c-71.558 0-131.942 53.086-141.83 121.934l-45.337-15.103c-5.391-1.831-11.338-.396-15.352 3.618s-5.42 9.961-3.618 15.352l11.719 35.186-35.186-11.719c-5.376-1.846-11.338-.41-15.352 3.618a14.993 14.993 0 00-3.618 15.352l15.103 45.337c-68.848 9.888-121.934 70.272-121.934 141.83a14.983 14.983 0 009.258 13.857c5.533 2.309 12.023 1.073 16.348-3.252 22.134-22.134 54.287-30.678 83.994-20.834 3.008.443 13.403 7.28 22.061-1.377 17.007-17.007 46.67-16.978 63.647 0 5.859 5.859 15.352 5.859 21.211 0 22.148-22.134 54.36-29.692 83.994-19.834l6.724 2.241c5.405 1.831 11.338.396 15.352-3.618s5.42-9.961 3.618-15.352l-2.241-6.724c-9.888-29.678-2.3-61.86 19.834-83.994 5.859-5.859 5.859-15.352 0-21.211-8.496-8.496-13.184-19.805-13.184-31.831 0-12.012 4.688-23.32 13.184-31.816 8.606-8.573 1.82-19.048 1.377-22.061-9.888-29.678-1.285-61.86 20.834-83.994a14.981 14.981 0 003.251-16.347z" fill="#575f64"/><path d="M467.802 448.833l-2.241-6.724c-9.888-29.678-2.3-61.86 19.834-83.994 5.859-5.859 5.859-15.352 0-21.211-8.496-8.496-13.184-19.805-13.184-31.831 0-12.012 4.688-23.32 13.184-31.816 8.606-8.573 1.82-19.048 1.377-22.061-9.888-29.678-1.285-61.86 20.834-83.994a14.984 14.984 0 003.252-16.348 14.984 14.984 0 00-13.857-9.258c-71.558 0-131.942 53.086-141.83 121.934l-45.337-15.103c-5.391-1.831-11.338-.396-15.352 3.618s-5.42 9.961-3.618 15.352l11.719 35.186 161.602 161.602a15 15 0 003.617-15.352z" fill="#474f54"/></svg>