<svg xmlns="http://www.w3.org/2000/svg" width="512" height="512"><g fill="#FFF"><path d="M492.435 285.315a8.529 8.529 0 00-6.035-2.498h-35.45a8.525 8.525 0 00-8.533 8.533v97.525h-18.375v-26.817a8.525 8.525 0 00-8.533-8.533h-26.917V220.65a8.525 8.525 0 00-8.533-8.533h-35.442a8.525 8.525 0 00-8.533 8.533v97.525H317.7V114.592a8.525 8.525 0 00-8.533-8.533h-25.225V8.533A8.525 8.525 0 00275.408 0h-35.45a8.525 8.525 0 00-8.533 8.533v97.525h-28.592a8.525 8.525 0 00-8.533 8.533v203.583h-18.383V220.65a8.525 8.525 0 00-8.533-8.533h-35.442a8.525 8.525 0 00-8.533 8.533v132.875H96.492a8.525 8.525 0 00-8.533 8.533v26.817H69.583V291.35a8.525 8.525 0 00-8.533-8.533H25.6a8.525 8.525 0 00-8.533 8.533v141.408a8.525 8.525 0 008.533 8.533h62.358v26.825a8.525 8.525 0 008.533 8.533h62.358v26.817a8.525 8.525 0 008.533 8.533h35.45a8.525 8.525 0 008.533-8.533V476.65h18.375v26.817a8.525 8.525 0 008.533 8.533h35.45a8.525 8.525 0 008.533-8.533V476.65h18.375v26.817a8.525 8.525 0 008.533 8.533h35.45a8.525 8.525 0 008.533-8.533V476.65h62.358a8.525 8.525 0 008.533-8.533v-26.825H486.4a8.525 8.525 0 008.533-8.533V291.35a8.521 8.521 0 00-2.498-6.035zM353.15 229.183h18.375v18.283H353.15v-18.283zm-212.675 0h18.375v18.283h-18.375v-18.283zm-106.342 70.7h18.383v18.292H34.133v-18.292zM194.3 494.933h-18.383V476.65H194.3v18.283zm35.442-35.35h-18.375v-18.292h18.375v18.292zm70.891 0h-18.375v-18.292h18.375v18.292zm35.45 35.35H317.7V476.65h18.383v18.283zm141.784-70.708h-62.358a8.525 8.525 0 00-8.533 8.533v26.825H317.7v-26.825a8.525 8.525 0 00-8.533-8.533h-35.442a8.525 8.525 0 00-8.533 8.533v62.175h-18.383v-62.175a8.525 8.525 0 00-8.533-8.533h-35.442a8.525 8.525 0 00-8.533 8.533v26.825h-89.275v-26.825a8.525 8.525 0 00-8.533-8.533h-62.36v-88.983h18.383v62.167a8.525 8.525 0 008.533 8.533h35.442a8.525 8.525 0 008.533-8.533v-26.817h26.917a8.525 8.525 0 008.533-8.533v-97.525h18.375v62.175a8.525 8.525 0 008.533 8.533h35.45a8.525 8.525 0 008.533-8.533V123.125h28.592a8.525 8.525 0 008.533-8.533V17.067h18.383v97.525a8.525 8.525 0 008.533 8.533h25.225v203.583a8.525 8.525 0 008.533 8.533h35.45a8.525 8.525 0 008.533-8.533v-62.175h18.375v97.525a8.525 8.525 0 008.533 8.533h26.917v26.817a8.525 8.525 0 008.533 8.533h35.442a8.525 8.525 0 008.533-8.533v-62.167h18.383v88.984zm0-106.05h-18.383v-18.292h18.383v18.292z"/><path d="M309.167 353.525h-26.908V291.35a8.525 8.525 0 00-8.533-8.533h-35.45a8.525 8.525 0 00-8.533 8.533v62.175h-26.908a8.525 8.525 0 00-8.533 8.533v35.35a8.525 8.525 0 008.533 8.533h35.442a8.525 8.525 0 008.533-8.533v-26.817h18.383v26.817a8.525 8.525 0 008.533 8.533h35.442a8.525 8.525 0 008.533-8.533v-35.35a8.525 8.525 0 00-8.534-8.533zm-79.425 35.35h-18.375v-18.283h18.375v18.283zm35.45-35.35h-18.383v-53.642h18.383v53.642zm35.441 35.35h-18.375v-18.283h18.375v18.283z"/></g></svg>