<svg xmlns="http://www.w3.org/2000/svg" viewBox="0 0 512.001 512" width="512" height="512"><path d="M255 202c11.047 0 20 8.953 20 20s-8.953 20-20 20-20-8.953-20-20 8.953-20 20-20zm70 20c0 11.047 8.953 20 20 20s20-8.953 20-20-8.953-20-20-20-20 8.953-20 20zm-180 0c0 11.047 8.953 20 20 20s20-8.953 20-20-8.953-20-20-20-20 8.953-20 20zm349.414 187.563c23.406 23.406 23.406 61.468.012 84.863-11.696 11.695-27.063 17.547-42.426 17.547s-30.73-5.852-42.426-17.547L299.785 384.883a19.98 19.98 0 01-5.008-8.348l-23.914-78.722a20 20 0 014.82-19.782 20.01 20.01 0 0119.657-5.304l80.722 22.359a20.006 20.006 0 018.793 5.121zM331.59 360.108l74.09 73.926 28.289-28.289-73.653-73.512-40.609-11.25zm134.55 77.75l-3.859-3.855-28.285 28.285 3.848 3.836c7.812 7.816 20.5 7.816 28.297.016 7.8-7.797 7.8-20.485 0-28.282zm-199.015-23.406c-3.695.16-7.438.242-11.125.242-32.16 0-63.121-5.988-92.02-17.797a20.026 20.026 0 00-15.343.09L57.57 435.43l30.684-72.684a19.998 19.998 0 00-3.488-21.074C55.48 308.773 40 269.41 40 227.848 40 124.27 136.898 40 256 40s216 84.27 216 187.848c0 24.562-6.031 49.222-17.93 73.289-4.894 9.902-.836 21.898 9.067 26.793 9.902 4.894 21.898.836 26.793-9.067 14.644-29.629 22.07-60.25 22.07-91.015C512 102.21 397.16 0 256 0 114.844 0 0 102.21 0 227.848 0 275.27 16.078 320.18 46.637 358.48L1.574 465.223a20 20 0 0026.203 26.203L156.707 437c31.445 11.746 64.809 17.695 99.293 17.695 4.266 0 8.598-.097 12.875-.28 11.035-.485 19.59-9.821 19.105-20.856-.48-11.036-9.835-19.618-20.855-19.106zm0 0" fill="#FFF"/></svg>