<svg xmlns="http://www.w3.org/2000/svg" height="512" viewBox="-63 0 479 480" width="512"><path d="M296.5 0h-240C25.586.035.535 25.086.5 56v368c.035 30.914 25.086 55.965 56 56h240c30.914-.035 55.965-25.086 56-56V56c-.035-30.914-25.086-55.965-56-56zm40 424c-.027 22.082-17.918 39.973-40 40h-240c-22.082-.027-39.973-17.918-40-40V56c.027-22.082 17.918-39.973 40-40h240c22.082.027 39.973 17.918 40 40zm0 0" fill="#000333"/><path d="M296.5 32h-240c-13.254 0-24 10.746-24 24v80c0 13.254 10.746 24 24 24h240c13.254 0 24-10.746 24-24V56c0-13.254-10.746-24-24-24zm8 104a8 8 0 01-8 8h-240a8 8 0 01-8-8V56a8 8 0 018-8h240a8 8 0 018 8zm-216 48h-32c-13.254 0-24 10.746-24 24v24c0 13.254 10.746 24 24 24h32c13.254 0 24-10.746 24-24v-24c0-13.254-10.746-24-24-24zm8 48a8 8 0 01-8 8h-32a8 8 0 01-8-8v-24a8 8 0 018-8h32a8 8 0 018 8zm96-48h-32c-13.254 0-24 10.746-24 24v24c0 13.254 10.746 24 24 24h32c13.254 0 24-10.746 24-24v-24c0-13.254-10.746-24-24-24zm8 48a8 8 0 01-8 8h-32a8 8 0 01-8-8v-24a8 8 0 018-8h32a8 8 0 018 8zm96-48h-32c-13.254 0-24 10.746-24 24v24c0 13.254 10.746 24 24 24h32c13.254 0 24-10.746 24-24v-24c0-13.254-10.746-24-24-24zm8 48a8 8 0 01-8 8h-32a8 8 0 01-8-8v-24a8 8 0 018-8h32a8 8 0 018 8zm-216 48h-32c-13.254 0-24 10.746-24 24v24c0 13.254 10.746 24 24 24h32c13.254 0 24-10.746 24-24v-24c0-13.254-10.746-24-24-24zm8 48a8 8 0 01-8 8h-32a8 8 0 01-8-8v-24a8 8 0 018-8h32a8 8 0 018 8zm96-48h-32c-13.254 0-24 10.746-24 24v24c0 13.254 10.746 24 24 24h32c13.254 0 24-10.746 24-24v-24c0-13.254-10.746-24-24-24zm8 48a8 8 0 01-8 8h-32a8 8 0 01-8-8v-24a8 8 0 018-8h32a8 8 0 018 8zm96-48h-32c-13.254 0-24 10.746-24 24v24c0 13.254 10.746 24 24 24h32c13.254 0 24-10.746 24-24v-24c0-13.254-10.746-24-24-24zm8 48a8 8 0 01-8 8h-32a8 8 0 01-8-8v-24a8 8 0 018-8h32a8 8 0 018 8zm-216 48h-32c-13.254 0-24 10.746-24 24v24c0 13.254 10.746 24 24 24h32c13.254 0 24-10.746 24-24v-24c0-13.254-10.746-24-24-24zm8 48a8 8 0 01-8 8h-32a8 8 0 01-8-8v-24a8 8 0 018-8h32a8 8 0 018 8zm96-48h-32c-13.254 0-24 10.746-24 24v24c0 13.254 10.746 24 24 24h32c13.254 0 24-10.746 24-24v-24c0-13.254-10.746-24-24-24zm8 48a8 8 0 01-8 8h-32a8 8 0 01-8-8v-24a8 8 0 018-8h32a8 8 0 018 8zm96-48h-32c-13.254 0-24 10.746-24 24v24c0 13.254 10.746 24 24 24h32c13.254 0 24-10.746 24-24v-24c0-13.254-10.746-24-24-24zm8 48a8 8 0 01-8 8h-32a8 8 0 01-8-8v-24a8 8 0 018-8h32a8 8 0 018 8zm0 0" fill="#000333"/></svg>