<svg xmlns="http://www.w3.org/2000/svg" viewBox="0 0 446.142 446.142" width="512" height="512"><path d="M441.642 174.078l-66.857-38.6V58.275a8.998 8.998 0 00-4.5-7.794L298.927 9.284a8.999 8.999 0 00-9 0L223.07 47.883 156.214 9.284a8.999 8.999 0 00-9 0L75.856 50.481a8.997 8.997 0 00-4.5 7.794v77.204L4.5 174.078a8.997 8.997 0 00-4.5 7.794v82.399a8.997 8.997 0 004.5 7.794l66.855 38.598v77.204a8.997 8.997 0 004.5 7.794l71.358 41.197a8.999 8.999 0 009 0l66.856-38.599 66.857 38.599a8.994 8.994 0 009 0l71.357-41.197a8.998 8.998 0 004.5-7.794v-77.203l66.857-38.599a9 9 0 004.5-7.794v-82.399a8.993 8.993 0 00-4.498-7.794zM232.071 63.471l62.356-36.001 62.357 36.001v72.007l-62.357 36.001-62.356-36.001V63.471zm-142.715 0l62.358-36.001 62.356 36.001v72.007l-62.356 36.001-62.358-36.001V63.471zM18 259.075v-72.007l62.356-36.001 62.358 36.001v72.007l-62.358 36-62.356-36zm196.07 123.596l-62.356 36.001-62.358-36.001v-72.007l62.358-36.001 62.356 36.001v72.007zm-53.356-123.596v-72.007l62.356-36.001 62.357 36.001v72.007l-62.357 36-62.356-36zm196.071 123.596l-62.357 36.001-62.356-36.001v-72.007l62.356-36 62.357 36v72.007zm71.357-123.596l-62.357 36-62.357-36v-72.007l62.357-36.001 62.357 36.001v72.007zM223.07 190.258c-18.093 0-32.813 14.72-32.813 32.813a32.752 32.752 0 008.422 21.95 32.87 32.87 0 0024.39 10.863c18.093 0 32.814-14.72 32.814-32.813s-14.719-32.813-32.813-32.813zm0 47.627a14.84 14.84 0 01-11.013-4.907 14.78 14.78 0 01-3.8-9.906c0-8.168 6.645-14.813 14.813-14.813 8.168 0 14.814 6.646 14.814 14.813s-6.645 14.813-14.814 14.813zM118.9 346.668a32.753 32.753 0 008.424 21.95 32.866 32.866 0 0024.39 10.863c18.093 0 32.813-14.72 32.813-32.813s-14.72-32.813-32.813-32.813c-18.093-.001-32.814 14.719-32.814 32.813zm47.627 0c0 8.168-6.645 14.813-14.813 14.813a14.842 14.842 0 01-11.013-4.907 14.78 14.78 0 01-3.801-9.906c0-8.168 6.646-14.813 14.814-14.813 8.168-.001 14.813 6.645 14.813 14.813zm18-247.194c0-18.094-14.72-32.813-32.813-32.813-18.094 0-32.814 14.72-32.814 32.813a32.753 32.753 0 008.424 21.95 32.866 32.866 0 0024.39 10.863c18.093.001 32.813-14.719 32.813-32.813zm-47.627 0c0-8.168 6.646-14.813 14.814-14.813 8.167 0 14.813 6.646 14.813 14.813s-6.645 14.813-14.813 14.813a14.842 14.842 0 01-11.013-4.907 14.778 14.778 0 01-3.801-9.906z" data-original="#000000" class="active-path" data-old_color="#FFFEFE" fill="#FFF"/></svg>