<svg xmlns="http://www.w3.org/2000/svg" width="512" height="512" viewBox="0 0 495.267 495.267"><path d="M438.062 179.243c9.233-3.728 18.604-7.103 28.08-10.266 0 0-2.252-.019-6.478-.049-.44 0-.502.004-.381.004a458.08 458.08 0 0 0-24.516.701L391.695 43.971l-2.916-8.509-4.253 7.951-82.854 155.006a493.043 493.043 0 0 0-31.138 13.23L208.44 45.381l-3.603-9.645-3.682 9.609L84.509 349.796c-8.48 9.023-16.757 18.236-24.771 27.681-12.016 14.157-23.511 28.76-34.377 43.821-8.92 12.36-17.547 25.007-25.211 38.191l-.15.316h93.523l20.405-38.874 26.94.023c-8.367 16.472-14.333 30.199-17.88 38.851h102.948c7.143-38.139 19.007-75.653 35.742-110.683a395.368 395.368 0 0 1 18.21-33.819l31.01 105.331h37.685L298.72 287.116c8.878-12.01 18.522-23.449 28.966-34.158 25.984-26.637 56.572-48.571 90.069-64.77.437-.211.88-.41 1.318-.621l38.965 158.567h37.229l-57.205-166.891zM129.608 305.837l75.116-245.863 47.321 160.744a524.518 524.518 0 0 0-12.194 6.486c-34.479 18.963-66.897 41.645-96.932 67.045a688.539 688.539 0 0 0-13.311 11.588zm38.118 67.967l-25.423-.006s22.575-30.451 34.22-44.7l23.319.087c-11.11 13.595-21.916 28.608-32.116 44.619zm70.648-85.186l-23.896.131 47.346-35.6 3.873 13.948c-9.262 6.384-18.402 13.562-27.323 21.521zm63.241-47.582l-11.95-5.186 44.147-26.158 12.272 1.139c-19.786 11.058-44.469 30.205-44.469 30.205zm65.989-42.902l-8.709-1.5s23.084-11.365 49.542-18.906l2.5.489c-21.5 7.25-43.333 19.917-43.333 19.917zm-17.582-15.348a451.007 451.007 0 0 0-16.499 4.686l53.558-130.084 27.959 113.771c-21.907 2.188-43.628 6.012-65.018 11.627z" fill="#FFF"/></svg>